<svg xmlns="http://www.w3.org/2000/svg" width="1200" height="900" viewBox="0 0 1200 900" role="img" aria-label="Contour Foam Pillow">
  <rect width="1200" height="900" fill="#1E293B"/>
  <circle cx="80" cy="-60" r="260" fill="none" stroke="#8B5CF6" stroke-width="28" opacity="0.45"/>
  <path d="M250 520 C250 360 470 280 600 280 C730 280 950 360 950 520 C950 620 780 680 600 680 C420 680 250 620 250 520Z" fill="#A78BFA" opacity="0.75"/>
  <path d="M330 500 C360 430 500 390 600 390 C700 390 840 430 870 500 C840 470 700 450 600 450 C500 450 360 470 330 500Z" fill="#8B5CF6" opacity="0.85"/>
  <text x="80" y="760" fill="#F8FAFC" font-family="Arial, sans-serif" font-size="42" font-weight="700">Contour pillow</text>
  <text x="80" y="810" fill="#A78BFA" font-family="Arial, sans-serif" font-size="22" font-weight="700" letter-spacing="4">VICTORY FOAM</text>
</svg>
